Coordinates
version=1
nRows=20
nColumns=38
inDegrees=no

Units are S.I. units (second, meters, Newtons, ...)
If the header above contains a line with 'inDegrees', this indicates whether rotational values are in degrees (yes) or radians (no).

endheader
time	pelvis_tilt	pelvis_list	pelvis_rotation	pelvis_tx	pelvis_ty	pelvis_tz	hip_flexion_r	hip_adduction_r	hip_rotation_r	knee_angle_r	ankle_angle_r	subtalar_angle_r	mtp_angle_r	hip_flexion_l	hip_adduction_l	hip_rotation_l	knee_angle_l	ankle_angle_l	subtalar_angle_l	mtp_angle_l	lumbar_extension	lumbar_bending	lumbar_rotation	arm_flex_r	arm_add_r	arm_rot_r	elbow_flex_r	pro_sup_r	wrist_flex_r	wrist_dev_r	arm_flex_l	arm_add_l	arm_rot_l	elbow_flex_l	pro_sup_l	wrist_flex_l	wrist_dev_l
0.5	1.60563	1.39764	0.0502185	0.770369	0.209232	0.996369	0.300239	0.0985478	-0.476185	0.427962	0.0187254	0	0	0.193651	-0.242802	0.124754	1.15474	-0.140659	0	0	-0.260348	0.196173	-0.0300384	-0.0709764	-0.254503	0.203492	0.504058	1.26676	0	0	0.0710366	-0.238405	0.440396	0.331629	1.28703	0	0
0.51	1.63066	1.40017	0.0220417	0.772301	0.219207	0.998804	0.27817	0.102281	-0.474086	0.416321	0.0224741	0	0	0.21378	-0.233944	0.129889	1.18805	-0.128446	0	0	-0.2645	0.191806	-0.0261523	-0.0692695	-0.250506	0.193348	0.500797	1.27552	0	0	0.0686608	-0.24272	0.447722	0.34065	1.27241	0	0
0.52	1.65434	1.40316	-0.00555119	0.774285	0.229001	1.00125	0.255558	0.105772	-0.471722	0.403426	0.0310566	0	0	0.233276	-0.225165	0.132303	1.21573	-0.115508	0	0	-0.268829	0.186466	-0.021828	-0.065604	-0.246003	0.183246	0.495127	1.28546	0	0	0.0667135	-0.24644	0.451766	0.348306	1.26114	0	0
0.53	1.67868	1.40624	-0.0332468	0.776183	0.23872	1.00365	0.231728	0.109058	-0.470378	0.386981	0.0352778	0	0	0.252405	-0.215921	0.135145	1.23924	-0.104636	0	0	-0.273136	0.180951	-0.0183856	-0.0607934	-0.241863	0.176785	0.487789	1.29399	0	0	0.0651874	-0.248973	0.448439	0.354178	1.25544	0	0
0.54	1.77051	1.42017	-0.124742	0.778854	0.247816	1.00763	0.200847	0.106139	-0.460069	0.370768	0.0300862	0	0	0.265796	-0.204614	0.134133	1.25404	-0.102747	0	0	-0.289897	0.1605	-0.0187133	-0.0507838	-0.231636	0.173263	0.475414	1.29837	0	0	0.0695164	-0.255377	0.441547	0.357584	1.25477	0	0
0.55	1.79165	1.42416	-0.147959	0.780565	0.257327	1.00966	0.180301	0.107403	-0.459973	0.357202	0.0350662	0	0	0.285225	-0.194567	0.136278	1.26696	-0.0979318	0	0	-0.292438	0.154084	-0.0165301	-0.0464813	-0.228228	0.170513	0.469224	1.3025	0	0	0.0695258	-0.256925	0.434253	0.360714	1.25557	0	0
0.56	1.79997	1.42806	-0.158211	0.782208	0.266706	1.01133	0.1626	0.108356	-0.46045	0.34474	0.0398824	0	0	0.306534	-0.185408	0.137683	1.2759	-0.093886	0	0	-0.292826	0.14835	-0.0140723	-0.0433496	-0.225774	0.168591	0.465158	1.30641	0	0	0.0704634	-0.257935	0.428115	0.362437	1.2575	0	0
0.57	1.7437	1.42226	-0.103642	0.783447	0.276656	1.01103	0.153721	0.119831	-0.462946	0.333713	0.0461135	0	0	0.33396	-0.186201	0.143909	1.28294	-0.0798484	0	0	-0.281054	0.156169	-0.00906249	-0.0489407	-0.230237	0.169	0.471571	1.31108	0	0	0.0684096	-0.254638	0.420826	0.362092	1.26491	0	0
0.58	1.74958	1.42521	-0.110649	0.785247	0.286125	1.01229	0.13742	0.121501	-0.459892	0.322898	0.0493997	0	0	0.35411	-0.179431	0.143234	1.28347	-0.0766496	0	0	-0.281607	0.151646	-0.00564839	-0.0475915	-0.229434	0.170628	0.470934	1.31046	0	0	0.0723146	-0.255649	0.419689	0.36102	1.26668	0	0
0.59	1.76381	1.42846	-0.125422	0.786619	0.295201	1.01356	0.120281	0.122515	-0.457428	0.312692	0.0536318	0	0	0.371684	-0.172061	0.142245	1.27922	-0.0755431	0	0	-0.283694	0.147052	-0.00231121	-0.0456011	-0.228931	0.172667	0.469398	1.30912	0	0	0.0773578	-0.256398	0.419551	0.359204	1.26835	0	0
0.6	1.78683	1.43284	-0.148715	0.787874	0.304267	1.01475	0.102571	0.121813	-0.454718	0.303275	0.0581196	0	0	0.386821	-0.16458	0.138995	1.27012	-0.0734984	0	0	-0.287008	0.141231	0.00071649	-0.0431861	-0.228209	0.174694	0.467071	1.30686	0	0	0.083125	-0.2575	0.420933	0.357249	1.2697	0	0
0.61	1.81571	1.438	-0.178682	0.789107	0.313263	1.01581	0.0848401	0.11986	-0.450193	0.294496	0.0626513	0	0	0.400012	-0.157229	0.133187	1.2572	-0.0693635	0	0	-0.291087	0.1343	0.00423869	-0.0406761	-0.227593	0.177478	0.464855	1.3037	0	0	0.0891457	-0.258812	0.423324	0.355414	1.27015	0	0
0.62	1.84792	1.44314	-0.213813	0.7903	0.322047	1.0167	0.0681769	0.117434	-0.444856	0.287862	0.0672711	0	0	0.411598	-0.151353	0.124174	1.2406	-0.0630685	0	0	-0.296039	0.126948	0.00920009	-0.0378103	-0.227424	0.181276	0.46327	1.29954	0	0	0.0954019	-0.25994	0.425902	0.353735	1.26966	0	0
0.63	1.88654	1.44731	-0.255069	0.791464	0.330792	1.01751	0.0514244	0.11539	-0.440069	0.282263	0.0719021	0	0	0.421299	-0.146779	0.114575	1.2204	-0.0549607	0	0	-0.301969	0.120564	0.013641	-0.0345962	-0.227144	0.184477	0.461756	1.29505	0	0	0.101559	-0.260704	0.42789	0.352077	1.2687	0	0
0.64	1.93634	1.45062	-0.306584	0.792449	0.339677	1.01825	0.033432	0.11379	-0.434753	0.276505	0.0769842	0	0	0.428558	-0.142673	0.105358	1.19712	-0.0464006	0	0	-0.309098	0.114753	0.0169303	-0.031253	-0.226227	0.186427	0.460136	1.29034	0	0	0.107208	-0.261298	0.42871	0.350728	1.26779	0	0
0.65	1.98814	1.45364	-0.35956	0.793425	0.348303	1.01885	0.0156881	0.111762	-0.431252	0.27081	0.0833447	0	0	0.43444	-0.138685	0.0955607	1.1707	-0.0377388	0	0	-0.316142	0.10935	0.0191796	-0.0276562	-0.225306	0.187935	0.458471	1.28585	0	0	0.111943	-0.261407	0.428388	0.349624	1.26744	0	0
0.66	2.03779	1.4561	-0.409565	0.79423	0.357353	1.0192	-0.000653553	0.110043	-0.426346	0.266081	0.0877229	0	0	0.439897	-0.135496	0.0849938	1.14087	-0.0282484	0	0	-0.322977	0.104549	0.0201961	-0.023533	-0.224048	0.190308	0.456365	1.28246	0	0	0.116473	-0.261623	0.426906	0.348843	1.26781	0	0
0.67	2.07964	1.45843	-0.452045	0.794968	0.365824	1.01939	-0.0155003	0.10796	-0.424352	0.262297	0.092885	0	0	0.444577	-0.132675	0.0732971	1.10693	-0.0198895	0	0	-0.328879	0.100512	0.0210485	-0.0188086	-0.223419	0.193556	0.453432	1.27952	0	0	0.119965	-0.260932	0.424577	0.34849	1.26905	0	0
0.68	2.11363	1.46087	-0.486075	0.795557	0.374461	1.01932	-0.0280111	0.105937	-0.420646	0.260319	0.0976927	0	0	0.44929	-0.129923	0.0617669	1.07019	-0.0111044	0	0	-0.333908	0.0967985	0.0208263	-0.0136644	-0.222452	0.196749	0.450004	1.27624	0	0	0.12329	-0.260151	0.421554	0.34796	1.27094	0	0
0.69	2.14382	1.46351	-0.51624	0.796069	0.383116	1.01903	-0.0394546	0.103714	-0.416721	0.259149	0.103172	0	0	0.453186	-0.127313	0.0491394	1.03071	-0.00200904	0	0	-0.338312	0.0931328	0.0199673	-0.00836614	-0.221427	0.199629	0.4463	1.27318	0	0	0.125676	-0.259576	0.417147	0.348636	1.27375	0	0
